<svg id="Capa_1" enable-background="new 0 0 512 512" height="512" viewBox="0 0 512 512" width="512" xmlns="http://www.w3.org/2000/svg"><g><path d="m316.875 97.043c-21.559-31.492-41.921-61.238-51.37-90.149-1.344-4.113-5.179-6.894-9.505-6.894s-8.162 2.782-9.505 6.894c-9.464 28.961-29.835 58.71-51.403 90.205-33.968 49.603-69.092 100.896-69.092 158.901 0 24.786 6.63 48.171 19.241 68.42-48.555 18.486-79.241 50.793-79.241 84.58 0 56.794 85.233 103 190 103 23.751 0 46.979-2.382 69.039-7.081 5.401-1.15 8.848-6.462 7.697-11.863s-6.455-8.849-11.863-7.697c-20.693 4.407-42.519 6.641-64.873 6.641-61.964 0-170-26.717-170-83 0-26.045 28.536-52.809 71.662-67.822 24.712 28.183 60.957 44.822 98.338 44.822 38.107 0 73.523-16.263 98.247-44.853 43.181 15.01 71.753 41.785 71.753 67.853 0 18.771-14.541 33.891-26.738 43.269-4.379 3.366-5.199 9.645-1.833 14.022 3.371 4.385 9.648 5.196 14.022 1.833 22.603-17.377 34.549-37.822 34.549-59.124 0-33.83-30.753-66.166-79.41-84.644 12.722-20.466 19.41-43.834 19.41-68.356 0-57.979-35.141-109.313-69.125-158.957zm-60.875 268.957c-58.319 0-110-46.599-110-110 0-51.813 33.346-100.509 65.594-147.602 16.869-24.633 33.032-48.236 44.408-71.923 11.365 23.653 27.516 47.245 44.369 71.865 32.266 47.134 65.629 95.871 65.629 147.66 0 59.866-48.233 110-110 110z"/><path d="m380.099 402.521c-3.578-4.207-9.888-4.717-14.097-1.14-11.232 9.554-48.679 27.619-110.002 27.619-61.325 0-98.77-18.065-110.001-27.617-4.207-3.58-10.519-3.07-14.096 1.139-3.578 4.207-3.068 10.518 1.139 14.096 14.141 12.027 55.952 32.382 122.958 32.382 67.004 0 108.816-20.354 122.959-32.382 4.207-3.578 4.717-9.889 1.14-14.097z"/><circle cx="366" cy="482" r="10"/></g></svg>