<svg height="512pt" viewBox="-53 0 512 512" width="512pt" xmlns="http://www.w3.org/2000/svg"><path d="m346.035156 356.582031h-97.535156c-4.144531 0-7.5 3.359375-7.5 7.503907 0 4.140624 3.355469 7.5 7.5 7.5h97.535156c4.140625 0 7.5-3.359376 7.5-7.5 0-4.144532-3.359375-7.503907-7.5-7.503907zm0 0"/><path d="m346.035156 391.582031h-97.535156c-4.144531 0-7.5 3.359375-7.5 7.503907 0 4.140624 3.355469 7.5 7.5 7.5h97.535156c4.140625 0 7.5-3.359376 7.5-7.5 0-4.144532-3.359375-7.503907-7.5-7.503907zm0 0"/><path d="m137.746094 141.824219h-17.589844v-94.292969c0-26.207031-21.324219-47.53125-47.53125-47.53125-26.210938 0-47.535156 21.324219-47.535156 47.53125v94.292969h-17.589844c-4.140625 0-7.5 3.359375-7.5 7.5v47.703125c0 4.140625 3.359375 7.5 7.5 7.5h17.589844v28.160156c0 4.144531 3.359375 7.5 7.503906 7.5 4.140625 0 7.5-3.355469 7.5-7.5v-28.160156h65.058594v85.570312h-65.058594v-27.402344c0-4.144531-3.355469-7.503906-7.5-7.503906s-7.503906 3.359375-7.503906 7.503906v89.742188c0 2 .039062 3.988281.117187 5.976562.074219 1.984376.1875 3.964844.339844 5.933594.074219.988282.160156 1.972656.253906 2.953125 2.546875 26.527344 11.914063 51.699219 27.480469 73.636719v51.71875c0 10.667969 8.679688 19.34375 19.34375 19.34375s19.34375-8.675781 19.34375-19.34375v-51.71875c18.449219-26 28.1875-56.542969 28.1875-88.5v-147.910156h17.589844c4.144531 0 7.503906-3.359375 7.503906-7.5v-47.703125c-.003906-4.140625-3.359375-7.5-7.503906-7.5zm-32.59375 210.613281c0 29.570312-9.246094 57.800781-26.734375 81.640625-.945313 1.289063-1.457031 2.839844-1.457031 4.4375v54.140625c0 2.394531-1.945313 4.339844-4.335938 4.339844-2.394531 0-4.339844-1.945313-4.339844-4.339844v-54.140625c0-1.597656-.507812-3.152344-1.453125-4.4375-17.492187-23.839844-26.738281-52.070313-26.738281-81.640625v-47.335938h65.058594zm-65.058594-304.90625c0-17.933594 14.59375-32.527344 32.53125-32.527344 17.933594 0 32.527344 14.59375 32.527344 32.527344v94.292969h-65.058594zm90.148438 141.992188h-115.238282v-32.695313h115.238282zm0 0"/><path d="m398.238281 374.851562c4.144531 0 7.503907-3.355468 7.503907-7.5v-38.320312c0-27.84375-6.777344-55.625-19.601563-80.335938l-5.148437-9.925781v-41.742187c0-4.144532-3.355469-7.503906-7.5-7.503906h-2.507813v-40.199219c0-4.140625-3.359375-7.5-7.503906-7.5h-17.589844v-94.292969c0-26.207031-21.320313-47.53125-47.53125-47.53125s-47.53125 21.324219-47.53125 47.53125v20.605469c0 4.140625 3.355469 7.5 7.5 7.5s7.503906-3.359375 7.503906-7.5v-20.605469c0-17.9375 14.589844-32.527344 32.527344-32.527344s32.53125 14.59375 32.53125 32.527344v94.292969h-65.058594v-43.679688c0-4.144531-3.359375-7.503906-7.503906-7.503906s-7.5 3.359375-7.5 7.503906v43.679688h-17.589844c-4.144531 0-7.503906 3.359375-7.503906 7.5v40.199219h-2.507813c-4.144531 0-7.5 3.359374-7.5 7.503906v41.742187l-5.152343 9.925781c-12.820313 24.710938-19.597657 52.492188-19.597657 80.335938v145.222656c0 20.683594 16.828126 37.507813 37.511719 37.507813h139.746094c20.679687 0 37.507813-16.824219 37.507813-37.507813v-76.894531c0-4.144531-3.359376-7.503906-7.503907-7.503906-4.140625 0-7.5 3.359375-7.5 7.503906v30.820313h-184.757812v-91.648438h184.757812v30.820312c0 4.144532 3.359375 7.5 7.5 7.5zm-167.511719-170.324218h135.265626v28.570312h-135.265626zm10.011719-47.699219h115.242188v32.695313h-115.242188zm-16.84375 98.777344 3.890625-7.503907h141.148438l3.890625 7.5c10.566406 20.367188 16.625 43.015626 17.71875 65.925782h-184.367188c1.09375-22.910156 7.152344-45.558594 17.71875-65.921875zm166.84375 187.574219v31.074218c0 12.410156-10.097656 22.503906-22.507812 22.503906h-139.742188c-12.410156 0-22.507812-10.09375-22.507812-22.503906v-31.074218zm0 0"/></svg>